<svg width="64" height="64" viewBox="0 0 64 64" fill="none" xmlns="http://www.w3.org/2000/svg">
  <rect width="64" height="64" rx="8" fill="#4285F4"/>
  <circle cx="32" cy="32" r="18" fill="white"/>
  <path d="M32 18C25.373 18 20 23.373 20 30C20 33.1 21.4 35.8 23.5 37.5L25.5 35.5C24 34.2 23 32.2 23 30C23 24.5 27.5 20 33 20C35.5 20 37.7 21 39.2 22.7L41.2 20.7C39.2 18.3 36.8 18 32 18Z" fill="#4285F4"/>
  <path d="M32 46C38.627 46 44 40.627 44 34C44 30.9 42.6 28.2 40.5 26.5L38.5 28.5C40 29.8 41 31.8 41 34C41 39.5 36.5 44 31 44C28.5 44 26.3 43 24.8 41.3L22.8 43.3C24.8 45.7 27.2 46 32 46Z" fill="#34A853"/>
  <path d="M23.5 37.5L21.5 39.5C19.3 37.3 18 34 18 30.5C18 27 19.3 23.7 21.5 21.5L23.5 23.5C22 25 21.2 27.6 21.2 30.5C21.2 33.4 22 36 23.5 37.5Z" fill="#EA4335"/>
  <path d="M40.5 26.5L42.5 24.5C44.7 26.7 46 30 46 33.5C46 37 44.7 40.3 42.5 42.5L40.5 40.5C42 39 42.8 36.4 42.8 33.5C42.8 30.6 42 28 40.5 26.5Z" fill="#FBBC04"/>
</svg>
